<?xml version="1.0" encoding="UTF-8"?>
<svg id="Layer_1" data-name="Layer 1" xmlns="http://www.w3.org/2000/svg" viewBox="0 0 430.89 368.05">
  <defs>
    <style>
      .cls-1 {
        fill: none;
        stroke-width: 0px;
      }

      .cls-2 {
        fill: #231f20;
        stroke: #231f20;
        stroke-miterlimit: 10;
        stroke-width: .25px;
      }
    </style>
  </defs>
  <g>
    <path class="cls-2" d="m25,16.45c.14-.22.32-.32.54-.32s.4.11.54.32c.24.43.54,1.36.9,2.77.36,1.42.54,2.36.54,2.84,0,.1-.01.16-.04.18-.02.05-.04.11-.04.18,0,.1.01.25.04.47.02.22.05.49.07.81.02.32.05.61.07.85.29,3.19,1.14,5.57,2.56,7.13.31.31.53.47.65.47.22,0,.48-.32.79-.97,2.59-5.04,4-8.02,4.21-8.93.05-.19.14-.4.27-.61.13-.22.2-.5.2-.86,0-.38.11-.86.34-1.44.23-.58.47-1,.74-1.26.43-.5.88-.76,1.33-.76.14,0,.25.04.32.11.14.14.22.26.22.36,0,.19-.17.47-.5.83-.65.7-1.09,1.66-1.33,2.88-.12.5-.21.85-.27,1.04-.06.19-.15.43-.27.7s-.24.58-.36.92c-.24.67-.47,1.2-.68,1.58-.26.5-.59,1.19-.97,2.05-1.1,2.28-1.91,3.78-2.41,4.5-.5.72-1.02,1.08-1.55,1.08-.38,0-.82-.21-1.31-.63-.49-.42-.89-.92-1.21-1.49-.72-1.37-1.2-2.52-1.44-3.46s-.48-2.54-.72-4.82c-.24-1.9-.43-3.07-.58-3.53-.48-1.42-.72-2.29-.72-2.63,0-.1.02-.22.07-.36Z"/>
    <path class="cls-2" d="m44.12,13.03c.38-.29.65-.43.79-.43.07,0,.26.12.58.36.29.24.6.36.94.36.5,0,.88.44,1.12,1.33.02.1.04.23.04.4,0,.6-.22,1.19-.67,1.78-.44.59-.95.93-1.53,1.03-.02,0-.07,0-.13.02-.06.01-.1.02-.13.02-.38,0-.79-.11-1.22-.34-.43-.23-.73-.49-.9-.77-.14-.29-.22-.7-.22-1.22,0-.7.11-1.21.32-1.55.19-.31.53-.64,1.01-.97Zm2.05,1.62c-.19-.34-.53-.52-1.01-.54-.05,0-.12,0-.22-.02-.1-.01-.16-.02-.18-.02-.26,0-.46.14-.58.43-.17.43-.25.77-.25,1.01,0,.74.34,1.12,1.01,1.12h.14c.26-.02.46-.08.58-.18.12-.1.25-.3.4-.61.19-.38.29-.62.29-.72,0-.12-.06-.28-.18-.47Zm-1.01,5.18c.07-.14.22-.22.43-.22s.41.08.58.25c.12.12.18,1.18.18,3.17,0,2.78-.08,4.3-.25,4.54-.1.14-.19.83-.29,2.05-.05,1.18-.18,1.79-.4,1.84-.02,0-.05,0-.09.02-.04.01-.07.02-.09.02-.48,0-.72-.74-.72-2.23,0-1.13-.1-1.96-.29-2.48-.12-.34-.18-.66-.18-.97,0-.24.02-.42.07-.54.07-.26.11-.48.11-.65,0-.07,0-.16-.02-.25-.01-.1-.02-.17-.02-.22,0-.26.13-.53.4-.79.31-.34.47-.8.47-1.4v-.5c0-.94.04-1.48.11-1.62Z"/>
    <path class="cls-2" d="m53.73,18.32c.19-.6.43-.9.72-.9h.07c.26.05.4.48.4,1.3,0,.36-.06.66-.18.9-.05.12-.09.22-.13.29-.04.07-.04.11-.02.11.1,0,.48.06,1.15.18.24.05,1.12.17,2.63.36,1.01.12,1.76.29,2.25.52.49.23,1.07.65,1.75,1.28.67.65,1.11,1.21,1.31,1.67.2.47.31,1.15.31,2.03,0,1.08-.08,1.9-.23,2.45-.16.55-.45,1.04-.88,1.48-.53.53-1.13.83-1.8.9-.53.05-1.04.07-1.55.07-2.71,0-4.52-.17-5.44-.5-.6-.22-1.16-.59-1.69-1.13-.53-.54-.9-1.12-1.12-1.75-.17-.48-.25-1.06-.25-1.73,0-2.02.61-3.96,1.84-5.83.46-.74.74-1.31.86-1.69Zm2.2,3.17c-1.06-.17-1.64-.26-1.76-.29-.05-.02-.12-.04-.22-.04-.17,0-.38.22-.65.65-.24.43-.45,1.05-.63,1.85-.18.8-.27,1.51-.27,2.11,0,.07,0,.16.02.25.01.1.02.17.02.22.17,1.2.59,2.04,1.26,2.52.26.19.73.36,1.4.5.72.14,2.29.22,4.72.22,1.27,0,1.98-.04,2.12-.11.26-.17.49-.58.67-1.22.18-.65.27-1.33.27-2.05,0-.19-.02-.48-.07-.86-.1-.5-.4-1.01-.9-1.51-.7-.7-1.44-1.19-2.23-1.48s-2.04-.54-3.74-.76Z"/>
    <path class="cls-2" d="m68.1,12.64c.19-.41.43-.61.72-.61.19,0,.32.1.4.29l.04.04v.11c0,.17-.1.68-.29,1.55-.24,1.03-.36,1.94-.36,2.74,0,.74.1,1.46.29,2.16.29,1.06.47,1.89.54,2.5.07.61.12,1.76.14,3.44.02,1.61.05,2.61.09,3.01.04.4.14.69.31.88.24.24.53.36.86.36.26,0,.49-.01.68-.04.53-.02.88-.08,1.06-.18.18-.1.41-.3.7-.61.38-.46.68-.64.9-.54.22.07.32.24.32.5,0,.34-.17.65-.5.94-.89.84-1.97,1.26-3.24,1.26-.67,0-1.21-.17-1.62-.5-.38-.34-.64-.75-.76-1.24-.12-.49-.18-1.46-.18-2.9v-2.12c0-1.58-.1-2.71-.29-3.38-.19-.67-.36-1.61-.5-2.81-.05-.58-.07-.98-.07-1.22,0-1.18.25-2.38.76-3.6Z"/>
    <path class="cls-2" d="m80.62,19.87c.65-.41,1.27-.61,1.87-.61.41,0,.91.07,1.51.22,1.08.22,1.62.54,1.62.97,0,.17-.1.32-.29.47-.14.1-.28.14-.4.14-.07,0-.35-.05-.83-.14-.38-.1-1-.18-1.84-.25h-.29c-.46,0-.9.18-1.33.54-.89.74-1.36,2-1.4,3.78v.4c0,.55.1.88.29.97.1.05.16.07.18.07.22,0,.72-.43,1.51-1.3.91-.94,1.4-1.63,1.48-2.09.14-.77.42-1.15.83-1.15h.11c.19.05.31.2.34.45.04.25.07,1,.09,2.25.02,2.64.4,4.63,1.12,5.98.38.74.72,1.12,1.01,1.12.19,0,.48-.16.86-.47.55-.43,1.15-1.51,1.8-3.24.17-.43.3-.71.4-.83.1-.12.24-.18.43-.18.14,0,.24,0,.29.02.05.01.08.06.11.14.02.08.04.22.04.41v.47c-.02,1.15-.47,2.18-1.33,3.1-.38.43-.58.68-.58.76,0,.1-.3.28-.9.54-.46.22-.88.32-1.26.32-.46,0-.92-.17-1.4-.5-.46-.31-.83-1-1.12-2.05-.29-1.06-.48-2.03-.58-2.92-.1-.89-.17-1.33-.22-1.33-.31,0-.62.26-.94.79-.17.31-.5.61-1.01.9-.38.19-.64.29-.76.29-.14,0-.38-.07-.72-.22-.48-.19-.82-.47-1.03-.83-.2-.36-.31-.9-.31-1.62v-.22c.02-2.4.9-4.12,2.63-5.15Z"/>
    <path class="cls-2" d="m104.17,13.53c.24-.14,1.62-.22,4.14-.22,1.25,0,1.97.04,2.16.11.19.07.29.22.29.43,0,.34-.17.55-.52.63-.35.08-1.23.13-2.65.13-1.66,0-2.66.08-3.02.25-.36.17-.54.62-.54,1.37,0,.62.14,1.15.41,1.57.28.42.75.86,1.42,1.31.79.5,1.34.82,1.66.94s.86.23,1.66.32c1.87.24,3.17.47,3.91.7.73.23,1.34.58,1.82,1.06.46.46.75.85.88,1.19.13.34.2.84.2,1.51v.29c0,.55-.17,1.1-.5,1.66-.38.65-1.03,1.42-1.94,2.32-.91.9-1.76,1.6-2.56,2.11-1.25.82-2.53,1.22-3.85,1.22-.62,0-1.44-.1-2.45-.29-.7-.17-1.04-.48-1.04-.94,0-.05.02-.14.07-.29.1-.22.29-.32.58-.32.22,0,.54.1.97.29.38.22.97.32,1.76.32s1.43-.12,1.91-.36c.62-.34,1.25-.66,1.87-.97.38-.19.94-.64,1.67-1.35.73-.71,1.29-1.34,1.67-1.89.48-.74.72-1.43.72-2.05,0-.67-.26-1.26-.79-1.76-.55-.46-2.03-.84-4.43-1.15-1.1-.14-1.87-.29-2.3-.43-1.46-.5-2.62-1.23-3.47-2.18-.85-.95-1.28-1.97-1.28-3.08,0-.65.2-1.19.61-1.62.38-.41.71-.68.97-.83Z"/>
    <path class="cls-2" d="m119.32,12.67c.07-.31.25-.47.54-.47.17,0,.31.11.43.32.17.46.36,2.72.58,6.8.07,1.44.16,2.16.25,2.16.05,0,.08-.04.11-.11,1.08-1.51,1.92-2.35,2.52-2.52.26-.1.54-.14.83-.14.65,0,1.14.19,1.48.58.22.24.52.79.92,1.66.4.86.67,1.57.81,2.12.14.53.29,1.47.45,2.83.16,1.36.23,2.31.23,2.86v.25c-.07.31-.23.47-.47.47-.26,0-.43-.18-.5-.54-.24-1.08-.38-1.86-.43-2.34-.05-1.34-.32-2.72-.81-4.14-.49-1.42-.99-2.21-1.49-2.38-.19-.05-.3-.07-.32-.07-.24,0-.58.25-1.01.76-.5.53-1.02,1.36-1.55,2.48l-.79,1.66-.11,3.02c-.07,2.02-.2,3.14-.4,3.38-.14.19-.3.29-.47.29-.31,0-.54-.22-.68-.65-.12-.31-.18-.95-.18-1.91,0-1.15.07-2.08.22-2.77.07-.36.11-1.61.11-3.74,0-4.25-.08-7.08-.25-8.5-.05-.29-.07-.54-.07-.76s.02-.42.07-.61Z"/>
    <path class="cls-2" d="m133.25,13.03c.38-.29.65-.43.79-.43.07,0,.26.12.58.36.29.24.6.36.94.36.5,0,.88.44,1.12,1.33.02.1.04.23.04.4,0,.6-.22,1.19-.67,1.78-.44.59-.95.93-1.53,1.03-.02,0-.07,0-.13.02-.06.01-.1.02-.13.02-.38,0-.79-.11-1.22-.34-.43-.23-.73-.49-.9-.77-.14-.29-.22-.7-.22-1.22,0-.7.11-1.21.32-1.55.19-.31.53-.64,1.01-.97Zm2.05,1.62c-.19-.34-.53-.52-1.01-.54-.05,0-.12,0-.22-.02-.1-.01-.16-.02-.18-.02-.26,0-.46.14-.58.43-.17.43-.25.77-.25,1.01,0,.74.34,1.12,1.01,1.12h.14c.26-.02.46-.08.58-.18.12-.1.25-.3.4-.61.19-.38.29-.62.29-.72,0-.12-.06-.28-.18-.47Zm-1.01,5.18c.07-.14.22-.22.43-.22s.41.08.58.25c.12.12.18,1.18.18,3.17,0,2.78-.08,4.3-.25,4.54-.1.14-.19.83-.29,2.05-.05,1.18-.18,1.79-.4,1.84-.02,0-.05,0-.09.02-.04.01-.07.02-.09.02-.48,0-.72-.74-.72-2.23,0-1.13-.1-1.96-.29-2.48-.12-.34-.18-.66-.18-.97,0-.24.02-.42.07-.54.07-.26.11-.48.11-.65,0-.07,0-.16-.02-.25-.01-.1-.02-.17-.02-.22,0-.26.13-.53.4-.79.31-.34.47-.8.47-1.4v-.5c0-.94.04-1.48.11-1.62Z"/>
    <path class="cls-2" d="m140.92,12.64c.19-.41.43-.61.72-.61.19,0,.32.1.4.29l.04.04v.11c0,.17-.1.68-.29,1.55-.24,1.03-.36,1.94-.36,2.74,0,.74.1,1.46.29,2.16.29,1.06.47,1.89.54,2.5.07.61.12,1.76.14,3.44.02,1.61.05,2.61.09,3.01.04.4.14.69.31.88.24.24.53.36.86.36.26,0,.49-.01.68-.04.53-.02.88-.08,1.06-.18.18-.1.41-.3.7-.61.38-.46.68-.64.9-.54.22.07.32.24.32.5,0,.34-.17.65-.5.94-.89.84-1.97,1.26-3.24,1.26-.67,0-1.21-.17-1.62-.5-.38-.34-.64-.75-.76-1.24-.12-.49-.18-1.46-.18-2.9v-2.12c0-1.58-.1-2.71-.29-3.38-.19-.67-.36-1.61-.5-2.81-.05-.58-.07-.98-.07-1.22,0-1.18.25-2.38.76-3.6Z"/>
    <path class="cls-2" d="m151.54,12.64c.19-.41.43-.61.72-.61.19,0,.32.1.4.29l.04.04v.11c0,.17-.1.68-.29,1.55-.24,1.03-.36,1.94-.36,2.74,0,.74.1,1.46.29,2.16.29,1.06.47,1.89.54,2.5.07.61.12,1.76.14,3.44.02,1.61.05,2.61.09,3.01.04.4.14.69.31.88.24.24.53.36.86.36.26,0,.49-.01.68-.04.53-.02.88-.08,1.06-.18.18-.1.41-.3.7-.61.38-.46.68-.64.9-.54.22.07.32.24.32.5,0,.34-.17.65-.5.94-.89.84-1.97,1.26-3.24,1.26-.67,0-1.21-.17-1.62-.5-.38-.34-.64-.75-.76-1.24-.12-.49-.18-1.46-.18-2.9v-2.12c0-1.58-.1-2.71-.29-3.38-.19-.67-.36-1.61-.5-2.81-.05-.58-.07-.98-.07-1.22,0-1.18.25-2.38.76-3.6Z"/>
    <path class="cls-2" d="m162.81,13.03c.38-.29.65-.43.79-.43.07,0,.26.12.58.36.29.24.6.36.94.36.5,0,.88.44,1.12,1.33.02.1.04.23.04.4,0,.6-.22,1.19-.67,1.78-.44.59-.95.93-1.53,1.03-.02,0-.07,0-.13.02-.06.01-.1.02-.13.02-.38,0-.79-.11-1.22-.34-.43-.23-.73-.49-.9-.77-.14-.29-.22-.7-.22-1.22,0-.7.11-1.21.32-1.55.19-.31.53-.64,1.01-.97Zm2.05,1.62c-.19-.34-.53-.52-1.01-.54-.05,0-.12,0-.22-.02-.1-.01-.16-.02-.18-.02-.26,0-.46.14-.58.43-.17.43-.25.77-.25,1.01,0,.74.34,1.12,1.01,1.12h.14c.26-.02.46-.08.58-.18.12-.1.25-.3.4-.61.19-.38.29-.62.29-.72,0-.12-.06-.28-.18-.47Zm-1.01,5.18c.07-.14.22-.22.43-.22s.41.08.58.25c.12.12.18,1.18.18,3.17,0,2.78-.08,4.3-.25,4.54-.1.14-.19.83-.29,2.05-.05,1.18-.18,1.79-.4,1.84-.02,0-.05,0-.09.02-.04.01-.07.02-.09.02-.48,0-.72-.74-.72-2.23,0-1.13-.1-1.96-.29-2.48-.12-.34-.18-.66-.18-.97,0-.24.02-.42.07-.54.07-.26.11-.48.11-.65,0-.07,0-.16-.02-.25-.01-.1-.02-.17-.02-.22,0-.26.13-.53.4-.79.31-.34.47-.8.47-1.4v-.5c0-.94.04-1.48.11-1.62Z"/>
    <path class="cls-2" d="m175.63,17.1c0-1.01.23-1.51.68-1.51h.11c.19.05.32.14.38.29.06.14.1.47.13.97l.11,1.19,1.08.14c.1,0,.89.08,2.38.25.84.1,1.3.23,1.37.4.02.05.04.12.04.22,0,.34-.83.5-2.48.5-1.06,0-1.69.02-1.89.05-.2.04-.35.17-.45.41-.07.17-.11.59-.11,1.26,0,.46.01.8.04,1.04.1,1.87.46,3.3,1.08,4.28.17.29.34.59.5.9.12.29.58.82,1.37,1.58s1.32,1.21,1.58,1.33c.34.14.66.17.97.07.26-.07.55-.24.85-.5.3-.26.45-.48.45-.65,0-.19.13-.35.4-.47.26-.14.48-.1.65.14.17.24.16.56-.04.97-.17.41-.33.7-.49.86-.16.17-.43.35-.81.54-.38.19-.83.29-1.33.29-1.9,0-3.67-1.63-5.33-4.9-.48-.94-.8-1.8-.97-2.59-.17-.79-.25-1.84-.25-3.13,0-.77-.02-1.22-.05-1.37-.04-.14-.15-.23-.34-.25-2.71-.07-4.36-.17-4.93-.29-.34-.07-.5-.24-.5-.5,0-.14.07-.29.22-.43.17-.17.65-.25,1.44-.25h.9c.62.02,1.31.04,2.05.04.55,0,.89-.04,1.03-.11.13-.07.2-.25.2-.54v-.25Z"/>
    <path class="cls-2" d="m191.18,18.32c.19-.6.43-.9.72-.9h.07c.26.05.4.48.4,1.3,0,.36-.06.66-.18.9-.05.12-.09.22-.13.29-.04.07-.04.11-.02.11.1,0,.48.06,1.15.18.24.05,1.12.17,2.63.36,1.01.12,1.76.29,2.25.52.49.23,1.07.65,1.75,1.28.67.65,1.11,1.21,1.31,1.67.2.47.31,1.15.31,2.03,0,1.08-.08,1.9-.23,2.45-.16.55-.45,1.04-.88,1.48-.53.53-1.13.83-1.8.9-.53.05-1.04.07-1.55.07-2.71,0-4.52-.17-5.44-.5-.6-.22-1.16-.59-1.69-1.13-.53-.54-.9-1.12-1.12-1.75-.17-.48-.25-1.06-.25-1.73,0-2.02.61-3.96,1.84-5.83.46-.74.74-1.31.86-1.69Zm2.2,3.17c-1.06-.17-1.64-.26-1.76-.29-.05-.02-.12-.04-.22-.04-.17,0-.38.22-.65.65-.24.43-.45,1.05-.63,1.85-.18.8-.27,1.51-.27,2.11,0,.07,0,.16.02.25.01.1.02.17.02.22.17,1.2.59,2.04,1.26,2.52.26.19.73.36,1.4.5.72.14,2.29.22,4.72.22,1.27,0,1.98-.04,2.12-.11.26-.17.49-.58.67-1.22.18-.65.27-1.33.27-2.05,0-.19-.02-.48-.07-.86-.1-.5-.4-1.01-.9-1.51-.7-.7-1.44-1.19-2.23-1.48s-2.04-.54-3.74-.76Z"/>
  </g>
  <rect class="cls-1" x="9.53" width="204.83" height="48.41"/>
</svg>